<svg width="65" height="65" viewBox="0 0 65 65" fill="none" xmlns="http://www.w3.org/2000/svg">
<path d="M18.5949 8.04329H22.6073V4.81497C22.6073 4.43374 22.9183 4.1228 23.2995 4.1228H41.7014C41.8852 4.1228 42.061 4.19581 42.1907 4.32559C42.3205 4.45537 42.3935 4.63111 42.3935 4.81497V8.04329H46.4059C46.5871 8.04329 46.7655 8.11629 46.8953 8.24607C47.0251 8.37585 47.0981 8.5543 47.0981 8.73545V55.57L50.2209 55.5727C50.4021 55.5727 50.5805 55.6457 50.7103 55.7755C50.8401 55.9053 50.9131 56.081 50.9131 56.2649V60.1881C50.9131 60.3719 50.8401 60.5477 50.7103 60.6775C50.5805 60.8072 50.4021 60.8802 50.2209 60.8802H14.7801C14.3988 60.8802 14.0879 60.5693 14.0879 60.1881V56.2649C14.0879 55.8837 14.3988 55.5727 14.7801 55.5727H17.9056L17.9029 8.73539C17.9029 8.35416 18.2137 8.04329 18.5949 8.04329ZM23.9916 8.04329H41.0092V5.50713H23.9916V8.04329ZM45.7111 9.42762H19.2898V55.57H23.897V47.091H23.3887C23.0047 47.091 22.6965 46.7828 22.6965 46.3989V44.0357C22.6965 43.6545 23.0047 43.3436 23.3887 43.3436H41.6147H41.612C41.7959 43.3436 41.9743 43.4166 42.1041 43.5464C42.2339 43.6761 42.3042 43.8546 42.3042 44.0357V46.3989C42.3042 46.5827 42.2339 46.7585 42.1041 46.8882C41.9743 47.0207 41.7959 47.091 41.612 47.091H41.1037V55.5728H45.7109L45.7111 9.42762ZM46.4032 56.9571L15.4718 56.9598V59.496H49.5283V56.9571L46.4032 56.9571ZM25.2811 55.5728L31.808 55.5755V47.091H25.2811V55.5728ZM33.1926 55.5728H39.7195V47.091H33.1926V55.5728ZM24.0809 15.8897H29.6182V13.3508H24.0809V15.8897ZM30.3104 17.274H23.3888C23.0048 17.274 22.6966 16.9631 22.6966 16.5818V12.6586C22.6966 12.2774 23.0048 11.9665 23.3888 11.9665H30.3104C30.4916 11.9665 30.67 12.0395 30.7998 12.1693C30.9296 12.299 31.0026 12.4748 31.0026 12.6586V16.5818C31.0026 16.7657 30.9296 16.9414 30.7998 17.0712C30.67 17.201 30.4916 17.274 30.3104 17.274ZM35.3881 15.8897H40.9254V13.3508H35.3881V15.8897ZM41.6175 17.274H34.6931C34.3119 17.274 34.001 16.9631 34.001 16.5818V12.6586C34.001 12.2774 34.3119 11.9665 34.6931 11.9665H41.6148C41.7986 11.9665 41.9744 12.0395 42.1041 12.1693C42.2339 12.299 42.3069 12.4748 42.3069 12.6586V16.5818C42.3069 16.7657 42.2339 16.9414 42.1041 17.0712C41.9744 17.201 41.7986 17.274 41.6148 17.274H41.6175ZM24.0809 23.7333H29.6182V21.1971H24.0809V23.7333ZM30.3103 25.1176H23.3887C23.0048 25.1176 22.6965 24.8067 22.6965 24.4254V20.5022C22.6965 20.121 23.0048 19.8101 23.3887 19.8101H30.3103C30.4915 19.8101 30.6699 19.8831 30.7997 20.0129C30.9295 20.1426 31.0025 20.3211 31.0025 20.5022V24.4254C31.0025 24.6093 30.9295 24.785 30.7997 24.9148C30.6699 25.0446 30.4915 25.1176 30.3103 25.1176ZM35.388 23.7333H40.9253V21.1971H35.388V23.7333ZM41.6175 25.1176H34.6931C34.3118 25.1176 34.0009 24.8067 34.0009 24.4254V20.5022C34.0009 20.121 34.3118 19.8101 34.6931 19.8101H41.6147C41.7985 19.8101 41.9743 19.8831 42.1041 20.0129C42.2339 20.1426 42.3069 20.3211 42.3069 20.5022V24.4254C42.3069 24.6093 42.2339 24.785 42.1041 24.9148C41.9743 25.0446 41.7985 25.1176 41.6147 25.1176H41.6175ZM24.0808 31.5796H29.6181V29.0407H24.0808V31.5796ZM30.3103 32.9639H23.3886V32.9612C23.0047 32.9612 22.6965 32.653 22.6965 32.269V28.3485C22.6965 27.9673 23.0047 27.6564 23.3886 27.6564H30.3103C30.4914 27.6564 30.6699 27.7294 30.7997 27.8592C30.9294 27.9889 31.0024 28.1647 31.0024 28.3485V32.269C31.0024 32.4529 30.9294 32.6313 30.7997 32.7611C30.6699 32.8909 30.4914 32.9612 30.3103 32.9612V32.9639ZM35.3879 31.5796H40.9252L40.9225 29.0407H35.3852L35.3879 31.5796ZM41.6174 32.9639H34.6958L34.6931 32.9612C34.3118 32.9612 34.0009 32.653 34.0009 32.269V28.3485C34.0009 27.9673 34.3118 27.6564 34.6931 27.6564H41.6147C41.7985 27.6564 41.9743 27.7294 42.1041 27.8592C42.2339 27.9889 42.3069 28.1647 42.3069 28.3485V32.269C42.3069 32.4529 42.2339 32.6313 42.1041 32.7611C41.9743 32.8909 41.7985 32.9612 41.6147 32.9612L41.6174 32.9639ZM24.078 39.4232H29.6153V36.8843H24.078V39.4232ZM30.3074 40.8075H23.3858C23.0046 40.8075 22.6936 40.4966 22.6936 40.1153V36.1921C22.6936 35.8109 23.0046 35.5 23.3858 35.5H30.3074C30.4913 35.5 30.667 35.573 30.7968 35.7028C30.9266 35.8325 30.9996 36.0083 30.9996 36.1921V40.1153C30.9996 40.2992 30.9266 40.4749 30.7968 40.6047C30.667 40.7345 30.4913 40.8075 30.3074 40.8075ZM35.3851 39.4232H40.9224V36.8843H35.3851V39.4232ZM41.6146 40.8075H34.6901C34.3089 40.8075 33.998 40.4966 33.998 40.1153V36.1921C33.998 35.8109 34.3089 35.5 34.6901 35.5H41.6118C41.7956 35.5 41.9741 35.573 42.1039 35.7028C42.2337 35.8325 42.3039 36.0083 42.3039 36.1921V40.1153C42.3039 40.2992 42.2337 40.4749 42.1039 40.6047C41.9741 40.7345 41.7956 40.8075 41.6118 40.8075H41.6146ZM24.5887 45.7067H40.9224V44.7279H24.0807V45.7067H24.5887Z" fill="#9A3F81"/>
</svg>
